<svg xmlns="http://www.w3.org/2000/svg" width="35.691" height="38.699" viewBox="0 0 35.691 38.699">
  <g id="daysLogo" transform="translate(-174.437 -51.378)">
    <g id="Group_381" data-name="Group 381" transform="translate(174.437 51.378)">
      <path id="Path_496" data-name="Path 496" d="M816.344,41.34a11.1,11.1,0,0,1,3.169,7.839,11.711,11.711,0,0,1-3.169,7.839A11.314,11.314,0,0,1,801,57.351l1.668-3.669c.167.167.334.5.667.667a7.312,7.312,0,1,0,10.34-10.34,6.688,6.688,0,0,0-5.17-2.168h-.667l1.5-3.669,1.167-2.5H805L806.5,32h9.673l-.334.834L813.008,39a15.054,15.054,0,0,1,3.336,2.34Z" transform="translate(-801 -32)" fill="#009b46" fill-rule="evenodd"/>
      <path id="Path_497" data-name="Path 497" d="M856.505,43.675a12.7,12.7,0,0,1,3.5-.5,11.1,11.1,0,0,1,7.839,3.169,11.28,11.28,0,0,1,0,15.677,11.1,11.1,0,0,1-7.839,3.169A10.824,10.824,0,0,1,849,54.182a10.654,10.654,0,0,1,1-4.67L857.673,32h4Zm3.5,3.169a6.687,6.687,0,0,0-5.17,2.168,7.339,7.339,0,1,0,10.34,0,6.688,6.688,0,0,0-5.167-2.168Z" transform="translate(-840.994 -32)" fill="#009b46" fill-rule="evenodd"/>
      <path id="Path_498" data-name="Path 498" d="M857.338,82a5.155,5.155,0,0,1,1.334-.334,13.075,13.075,0,0,1,1.5,3.5,8.091,8.091,0,0,0-3.5,1.334,7.766,7.766,0,0,0-2.168-4.17c-.334-.334-.5-.667-.834-.834L855,78a10.707,10.707,0,0,1,2.168,1.668c.334.334.5.667.834,1ZM851.5,98.347a15.83,15.83,0,0,1-1.5-3.5,8.091,8.091,0,0,0,3.5-1.334,7.254,7.254,0,0,0,1.5,3.5A15.068,15.068,0,0,1,851.5,98.347Z" transform="translate(-841.828 -70.328)" fill="#007819" fill-rule="evenodd"/>
      <path id="Path_499" data-name="Path 499" d="M861.178,38.171l1-2.5h9.34l1.5-3.669H859.844l-2.5,5.671-1.5,3.669a7.232,7.232,0,0,1,.834-.167,13.1,13.1,0,0,1,13.009,13.009,13.449,13.449,0,0,1-3.836,9.173,23.857,23.857,0,0,1-2.5,1.835h0a13.642,13.642,0,0,1-4,1.668,14.344,14.344,0,0,1-2.669.167,12.61,12.61,0,0,1-6.5-1.668,13.92,13.92,0,0,1-2.669-2c-.334-.334-.5-.667-.834-1L845,66.023a16.437,16.437,0,0,0,9.34,4.5,10.257,10.257,0,0,0,2.335.167,12.625,12.625,0,0,0,2.5-.167h0a16.189,16.189,0,0,0,12.175-8.506,17.21,17.21,0,0,0,1.835-6.5h0c0-.334.167-.834.167-1.334a16,16,0,0,0-5-11.675,14.084,14.084,0,0,0-3-2.5,13.269,13.269,0,0,0-4.169-1.835Z" transform="translate(-837.661 -32)" fill="#009b46" fill-rule="evenodd"/>
    </g>
  </g>
</svg>
