<svg xmlns="http://www.w3.org/2000/svg" width="24.623" height="24.623" viewBox="0 0 24.623 24.623"><defs><style>.a{fill:#fff;}</style></defs><g transform="translate(3.591 2.053)"><path class="a" d="M4.8,20.519A4.82,4.82,0,0,1,0,15.687V4.627A4.61,4.61,0,0,1,4.581,0h5.425a.47.47,0,0,1,.467.472v3.3A3.427,3.427,0,0,0,13.866,7.2c.434,0,.814,0,1.151.006.263,0,.493,0,.7,0,.145,0,.331,0,.535,0,.235,0,.5-.006.735-.006a.46.46,0,0,1,.457.462v8.248a4.589,4.589,0,0,1-4.561,4.607Zm.01-6.524a.776.776,0,0,0,.762.769h5.525a.776.776,0,0,0,.762-.769.762.762,0,0,0-.762-.76H5.567A.762.762,0,0,0,4.805,13.994Zm0-5.12a.761.761,0,0,0,.762.759H9a.761.761,0,0,0,.762-.759A.776.776,0,0,0,9,8.105H5.567A.776.776,0,0,0,4.805,8.874ZM14,5.7a2.07,2.07,0,0,1-2.049-2.069V.93a.485.485,0,0,1,.836-.343l4.09,4.3a.489.489,0,0,1-.349.827H15.82C15.177,5.712,14.516,5.708,14,5.7Z"/></g></svg>