<svg xmlns="http://www.w3.org/2000/svg" width="24.623" height="24.623" viewBox="0 0 24.623 24.623"><defs><style>.a{fill:#fff;}</style></defs><g transform="translate(3.078 2.052)"><path class="a" d="M5.285,20.519H5.274A5.286,5.286,0,0,1,1.438,19.1,5.273,5.273,0,0,1,.011,15.266L0,6.723A5.221,5.221,0,0,1,1.25,3.129,5.067,5.067,0,0,1,4.623,1.57V.8A.793.793,0,0,1,4.848.233.786.786,0,0,1,6.182.8v.718L12.2,1.509V.79a.79.79,0,0,1,.224-.566.786.786,0,0,1,1.336.564v.769a5.094,5.094,0,0,1,3.407,1.526,5.123,5.123,0,0,1,1.289,3.575l.011,8.644c0,3.206-2.012,5.2-5.261,5.206Zm8.1-5.958a.854.854,0,0,0-.83.873.851.851,0,1,0,.84-.873Zm-8.337,0h0a.873.873,0,0,0-.829.883.844.844,0,0,0,.832.82h.04a.83.83,0,0,0,.579-.272.843.843,0,0,0,.22-.611.834.834,0,0,0-.84-.819Zm4.174-.006h0a.877.877,0,0,0-.829.884.845.845,0,0,0,.835.82H9.26a.845.845,0,0,0,.8-.884.834.834,0,0,0-.84-.819ZM5.04,10.869h0a.873.873,0,0,0-.829.883.843.843,0,0,0,.833.82h.04a.827.827,0,0,0,.578-.272.844.844,0,0,0,.22-.611.833.833,0,0,0-.839-.819Zm4.175-.036h0a.873.873,0,0,0-.83.883.845.845,0,0,0,.836.821h.037a.847.847,0,0,0,.8-.884.835.835,0,0,0-.839-.819Zm4.176.007h0a.848.848,0,0,0-.829.861v.012a.835.835,0,0,0,.842.819h.019a.846.846,0,0,0-.029-1.692Zm-8.765-7.7c-2.037.2-3.068,1.41-3.066,3.584l0,.319L16.9,7.019V6.66c-.044-2.168-1.1-3.357-3.136-3.534v.789a.784.784,0,0,1-1.337.561.793.793,0,0,1-.222-.559v-.83L6.185,3.1l0,.829a.784.784,0,0,1-1.338.562.793.793,0,0,1-.222-.56V3.138Z" transform="translate(0 0)"/></g></svg>