<svg xmlns="http://www.w3.org/2000/svg" width="20.519" height="20.519" viewBox="0 0 20.519 20.519"><defs><style>.a{fill:#fff;}</style></defs><path class="a" d="M21.082,10.822A10.26,10.26,0,1,1,10.822.563,10.259,10.259,0,0,1,21.082,10.822ZM11.1,3.955A5.358,5.358,0,0,0,6.276,6.592a.5.5,0,0,0,.112.673L7.824,8.353a.5.5,0,0,0,.689-.088c.739-.937,1.246-1.481,2.371-1.481.845,0,1.89.544,1.89,1.363,0,.62-.511.938-1.346,1.406-.973.546-2.261,1.225-2.261,2.923v.165a.5.5,0,0,0,.5.5H11.98a.5.5,0,0,0,.5-.5v-.055c0-1.177,3.441-1.226,3.441-4.413C15.918,5.775,13.429,3.955,11.1,3.955Zm-.275,10.26a1.9,1.9,0,1,0,1.9,1.9A1.905,1.905,0,0,0,10.822,14.214Z" transform="translate(-0.563 -0.563)"/></svg>