<?xml version="1.0" encoding="UTF-8"?><svg id="Layer_1" xmlns="http://www.w3.org/2000/svg" viewBox="0 0 1008.89 200.11"><g><path d="m90.44,27.23c.83,0,1.66.01,2.48.03l-49.25,105.26c-8.73,18.65,3.9,31.76,20.64,29.68,4.01-1.12,9.84-2.79,13.94-3.61l-12.19,28.5c-9.51-19.69-20.02-11.76-37.32-15.59-11.81-2.61-8.69-15.69-5.06-24.41,10.29-24.73,35.91-81.04,53.05-118.83,4.47-.68,9.05-1.03,13.7-1.03m9.38.48c3.35.35,6.65.88,9.88,1.58l-37.13,75.39c-4.35,8.84,2.05,19.29,10.98,20.16,4.67.45,9.84-4.68,12.68-3.89l-9.33,19.88c-3.8-5.43-7.79-6.01-13.58-5.54-5.3.43-19.73-8.51-10.04-29.28L99.82,27.71Zm16.9,3.4c4.7,1.43,9.23,3.22,13.57,5.36l-5.33,10.07c-.13.24-.26.46-.38.69-12.78,22.83-23.85,10.56-18.14,42.58.69,3.88-3.4,15.97-4.69,17.37-1.5-3.8-20.19-2.18-12.32-17.45l27.29-58.62Zm19.83,8.74c5.52,3.28,10.66,7.12,15.34,11.46l-2.94,6.41-15.82,38.7c-5.61,13.73-10.61,4.12-18.64,8.97-3.48,2.1-4.92,3-5.3,2.85,2.64-17.94,15.27-15.81,21.73-25.45,7.31-10.91-6.87-11.15,1.15-32.15.08-.19,2.05-4.96,4.49-10.8m19.49,15.56c2.32,2.44,4.5,5.02,6.54,7.71l-24.21,59.08c-3.69,9-15.41,18.56-24.13,16.44-7.24-1.77-12.93.08-20.22,2.75l9.32-19.68c2.66-.27,7.74,6.5,13.73,5.14,5.68-1.29,10.77-4.02,14.07-11.9l24.9-59.53Zm10.13,12.81c2.21,3.38,4.2,6.91,5.95,10.58l-28.44,76.25c-11.36,28.95-23.66,28.8-43.49,23.38-9.97-.52-14.36,3.11-22.85,5.19l11.4-28.61c17.01,22.75,35.93,18.13,46.1-5.41l31.32-81.38Zm9.28,18.51c3.51,9.65,5.43,20.06,5.43,30.92,0,36.67-21.85,68.26-53.24,82.44,5.35-5.32,9.51-11.86,12.2-18.99l35.6-94.38ZM9.13,157.28C3.29,145.31,0,131.87,0,117.66,0,75.78,28.49,40.55,67.14,30.27L9.13,157.28Z" fill="#fff" fill-rule="evenodd"/><path d="m407.24,184.5h-16.98l-3.08,8.83h-24.12l23.5-64.25,24.76-.04,23,64.3h-24.03s-3.04-8.83-3.04-8.83Zm-3.22-13.9l-5.32-19.85-5.35,19.85h10.67Z" fill="#fff"/><polygon points="210.7 129.07 232.96 129.07 232.96 155.9 248.76 129.07 274.66 129.07 254.3 160.53 275.86 193.33 250.8 193.32 232.96 166.5 232.96 193.33 210.71 193.33 210.7 129.07" fill="#fff"/><rect x="280.7" y="128.97" width="22.82" height="64.26" fill="#fff"/><path d="m310.34,187.31l7.78-16.75c2.7,1.9,10.19,6.74,17.76,6.35,4.37-.23,4.83-4.23,1.94-5.63-5.31-2.56-10.51-1.73-17.67-7.22-3.37-2.58-6.57-8.15-6.11-15.26,1.94-14.44,11.55-21.16,25.99-20.75,11.42-.35,20.4,3.73,22.75,5.39l-7.71,16.2c-14.47-8.18-20.65-2.96-16.9.88,2.28,2.68,13.11,2.3,19.49,8.3,13.12,10.69,2.42,35.36-17.33,36.13-10.26.4-21.58-1.37-29.99-7.65" fill="#fff"/><polygon points="438.84 129.06 460.91 129.06 480.25 161.48 480.25 129.07 502.53 129.07 502.54 193.31 480.5 193.32 460.97 161.42 460.92 193.32 438.84 193.31 438.84 129.06" fill="#fff"/><rect x="210.7" y="105.05" width="291.83" height="5.83" fill="#fff"/><path d="m495.11,40.24c-5.49-5.66-13.42-8.47-23.77-8.47h-17.75c-3.36,0-5.03-.61-5.03-1.84s1.57-1.84,4.69-1.84h30.33v-11.54h-30.43c-3.06,0-4.59-.58-4.59-1.73s1.5-1.62,4.46-1.62h43.25V0h-50.88c-11.35,0-17.01,3.9-17.01,11.68,0,4.99,2.8,8.44,8.36,10.42-2.2.31-4.03,1.42-5.43,3.4-1.43,1.95-2.13,4.1-2.13,6.44,0,7.42,4.03,12.03,12.27,13.27,1.52.23,3.19.37,4.98.39l4.37.05h15.51c5.23,0,8.92.89,11.09,2.7,2.5,1.98,3.76,5.46,3.76,10.53,0,6.99-2.33,10.51-7.03,10.51-2.23,0-3.7-.92-4.36-2.79-.7-1.84-1.3-3.79-1.83-5.82-2.33-7.86-9.26-11.79-20.78-11.79-9.19,0-16.22,2.17-21.04,6.55-4.33,3.93-6.49,9.2-6.49,15.83,0,5.27,1.93,10.34,5.79,15.24h20.81c-4.03-7.13-6.03-12.23-6.03-15.3,0-4.96,1.77-7.44,5.26-7.44,1.9,0,3.16,1.48,3.8,4.4,1.17,5.49,1.86,8.42,2.03,8.81.8,2.93,2.96,5.38,6.43,7.38,3.46,1.98,7.49,2.98,12.09,2.98,10.92,0,19.24-2.68,25.04-8.03,5.13-4.88,7.69-11.4,7.69-19.54s-2.46-14.6-7.43-19.65" fill="#fff"/><path d="m397.08,30.43h-26.18c-2.06-4.2-4.79-7.85-8.24-10.95-8.03-7.22-19.35-10.98-33.93-11.29l-7.16,16.83c1.7-.06,3.33-.11,4.86-.11,8.72,0,15.31,1.84,19.77,5.52h-56.7v14.72h64.18c.54,3.1.82,6.6.82,10.51,0,9.73-3.23,14.57-9.72,14.57-2.33,0-3.9-1-4.73-3.04-.63-2.34-1.2-4.63-1.73-6.88-2.43-7.89-9.69-11.82-21.74-11.82-8.46,0-15.08,1.92-19.84,5.74-5.03,3.99-7.56,9.67-7.56,17.06,0,5.99,1.8,11.12,5.39,15.33h21.74c-4.23-5.32-6.36-10.42-6.36-15.3s1.77-7.44,5.26-7.44c2.7,0,4.23,1.34,4.59,3.98.37,2.65.7,5.38.97,8.14,1.87,7.86,9.26,11.79,22.14,11.79,11.36,0,19.81-3.65,25.41-10.95,4.76-6.16,7.16-14.21,7.16-24.16,0-2.62-.14-5.13-.43-7.52h7.05c-1.66,1.95-2.5,4.38-2.5,7.3,0,4.04,1.93,7.25,5.83,9.56,3.4,2.03,7.72,3.04,12.95,3.04,5.96,0,11.02-1.59,15.15-4.79,4.16-3.21,6.23-7.3,6.23-12.35,0-11.65-7.56-17.47-22.67-17.47m1.73,21.24c-2.16,0-3.23-.92-3.23-2.76s1.07-2.76,3.23-2.76,3.36.92,3.36,2.76-1.13,2.76-3.36,2.76" fill="#fff"/><path d="m259.02,50.33h-16.92c-4.69,0-7.02-1.06-7.02-3.15,0-2.79,3.8-4.01,11.35-3.71,3.43.14,5.83.42,7.16.78,2.26.75,3.79,2.26,4.59,4.51h20.94c-.07-7.66-4.04-12.69-11.82-15.02,5.01-3.8,7.53-7.75,7.53-11.9,0-6.08-2.93-11.07-8.76-14.99-5.83-3.9-13.62-5.85-23.31-5.85-9.16,0-16.12,1.7-20.88,5.07-3.59,2.56-5.39,5.38-5.39,8.47,0,8.36,6.69,12.54,20.08,12.54,3.5,0,6.96-.72,10.39-2.15,4.13-1.67,7.02-4.01,8.72-7.02.93,1.14,1.37,2.2,1.37,3.2,0,2.2-1.7,4.26-5.13,6.19-3.06,1.76-6.03,2.62-8.89,2.62-7.93,0-13.55-1.23-16.88-3.65l-11.85,6.41c1.92,1.16,3.7,2.17,5.36,3.05-5.96,2.91-8.95,7.4-8.95,13.5,0,10.09,8.42,15.13,25.27,15.13h15.12c4.23,0,6.36.97,6.36,2.93,0,3.07-3.53,4.6-10.56,4.6-7.59,0-11.95-1.67-13.02-5.02h-23.17c1.1,13.15,13.08,19.73,35.99,19.73,9.29,0,17.05-1.42,23.27-4.29,7.76-3.54,11.65-8.89,11.65-16.05,0-10.62-7.52-15.94-22.61-15.94m-22.94-33.78c-1.86,0-2.8-.67-2.8-1.98s.93-1.87,2.8-1.87,2.8.61,2.8,1.87-.93,1.98-2.8,1.98" fill="#fff"/></g><g><g><path d="m591.43,74.98c4.35-3.99,10.42-5.98,18.2-5.98,5.08,0,9.41.87,13.01,2.62,3.59,1.75,6.31,4.12,8.16,7.12,1.84,3,2.77,6.38,2.77,10.14,0,4.48-1.09,8.06-3.26,10.73-2.18,2.67-4.65,4.47-7.42,5.39v.39c7.98,2.97,11.97,8.64,11.97,17.01,0,4.16-.96,7.81-2.87,10.98-1.91,3.16-4.68,5.64-8.31,7.42-3.63,1.78-7.95,2.67-12.96,2.67-8.24,0-14.75-1.99-19.53-5.98-4.78-3.99-7.27-10.1-7.47-18.35h18.89c-.13,2.64.43,4.68,1.68,6.13,1.25,1.45,3.13,2.18,5.64,2.18,1.91,0,3.41-.59,4.5-1.78,1.09-1.19,1.63-2.77,1.63-4.75,0-2.5-.81-4.35-2.42-5.54-1.62-1.19-4.24-1.78-7.86-1.78h-3.46v-15.73h3.36c2.5.07,4.63-.34,6.38-1.23,1.75-.89,2.62-2.69,2.62-5.39,0-2.04-.49-3.58-1.48-4.6s-2.34-1.53-4.05-1.53c-1.91,0-3.31.68-4.2,2.03-.89,1.35-1.4,3.02-1.53,5h-18.89c.26-7.45,2.57-13.17,6.92-17.16Z" fill="#fff"/><g><path d="m752.04,87.69h-29.67v10.98c1.25-1.32,2.97-2.37,5.14-3.16,2.18-.79,4.58-1.19,7.22-1.19,4.75,0,8.72,1.09,11.92,3.26,3.2,2.18,5.55,5.04,7.07,8.6,1.52,3.56,2.28,7.45,2.28,11.67,0,7.78-2.21,13.89-6.63,18.35-4.42,4.45-10.55,6.68-18.4,6.68-5.47,0-10.2-.94-14.19-2.82-3.99-1.88-7.04-4.5-9.15-7.86-2.11-3.36-3.2-7.22-3.26-11.57h18.89c.2,1.52.86,2.84,1.98,3.96,1.12,1.12,2.77,1.68,4.95,1.68,2.31,0,4.06-.79,5.24-2.37,1.19-1.58,1.78-3.69,1.78-6.33s-.63-4.53-1.88-5.88c-1.25-1.35-3.07-2.03-5.44-2.03-1.78,0-3.21.45-4.3,1.34-1.09.89-1.73,2-1.93,3.31h-18.89v-43.71h47.27v17.11Z" fill="#fff"/><path d="m866.18,73.15v69.73h-19.39v-38.47l-13.15,38.47h-16.22l-13.25-38.77v38.77h-19.39v-69.73h23.44l17.51,45.3,17.11-45.3h23.34Z" fill="#fff"/><path d="m921.36,131.5h-24.73l-3.76,11.37h-20.37l25.42-69.73h22.35l25.32,69.73h-20.47l-3.76-11.37Zm-4.85-14.84l-7.52-22.55-7.42,22.55h14.93Z" fill="#fff"/><path d="m987.23,142.88l-13.85-25.71h-2.08v25.71h-19.39v-69.73h30.56c5.6,0,10.35.97,14.24,2.92,3.89,1.95,6.82,4.62,8.8,8.01,1.98,3.4,2.97,7.2,2.97,11.42,0,4.75-1.3,8.92-3.91,12.51-2.61,3.6-6.41,6.15-11.42,7.67l15.73,27.2h-21.66Zm-15.92-38.97h9.59c2.64,0,4.61-.63,5.93-1.88,1.32-1.25,1.98-3.07,1.98-5.44,0-2.24-.68-4-2.03-5.29-1.35-1.29-3.31-1.93-5.88-1.93h-9.59v14.54Z" fill="#fff"/></g><rect x="649.61" y="99.04" width="30.97" height="14.67" fill="#fff"/><g><path d="m618.92,43.26h-18l-2.73,8.28h-14.83L601.86.79h16.27l18.43,50.75h-14.9l-2.73-8.28Zm-3.53-10.8l-5.47-16.41-5.4,16.41h10.87Z" fill="#fff"/><path d="m673.99,17.49c-.82-1.34-1.93-2.37-3.35-3.1-1.42-.72-3.08-1.08-5-1.08-3.55,0-6.35,1.15-8.39,3.45-2.04,2.3-3.06,5.4-3.06,9.29,0,4.37,1.09,7.69,3.27,9.97,2.18,2.28,5.36,3.42,9.54,3.42,4.94,0,8.47-2.23,10.58-6.69h-14.18v-10.15h26.34v13.68c-1.1,2.69-2.72,5.21-4.86,7.56-2.14,2.35-4.84,4.28-8.1,5.79-3.26,1.51-6.98,2.27-11.16,2.27-5.09,0-9.59-1.09-13.5-3.28-3.91-2.18-6.94-5.23-9.07-9.14-2.14-3.91-3.2-8.39-3.2-13.43s1.07-9.44,3.2-13.35c2.13-3.91,5.15-6.96,9.03-9.14,3.89-2.18,8.37-3.28,13.46-3.28,6.38,0,11.66,1.54,15.84,4.61,4.18,3.07,6.77,7.27,7.77,12.6h-15.19Z" fill="#fff"/><path d="m722.21,51.54l-10.08-18.71h-1.51v18.71h-14.11V.79h22.24c4.08,0,7.53.71,10.37,2.12,2.83,1.42,4.97,3.36,6.41,5.83,1.44,2.47,2.16,5.24,2.16,8.31,0,3.45-.95,6.49-2.84,9.11-1.9,2.62-4.67,4.47-8.31,5.58l11.45,19.8h-15.76Zm-11.59-28.36h6.98c1.92,0,3.36-.46,4.32-1.37.96-.91,1.44-2.23,1.44-3.96,0-1.63-.49-2.92-1.48-3.85-.98-.94-2.41-1.4-4.28-1.4h-6.98v10.58Z" fill="#fff"/><path d="m758.56.79v50.75h-14.11V.79h14.11Z" fill="#fff"/><path d="m785.77,47.83c-3.79-2.81-5.83-6.83-6.12-12.06h15.04c.14,1.78.67,3.07,1.58,3.89.91.82,2.09,1.22,3.53,1.22,1.3,0,2.36-.32,3.2-.97.84-.65,1.26-1.55,1.26-2.7,0-1.49-.7-2.64-2.09-3.46-1.39-.82-3.65-1.73-6.77-2.73-3.31-1.1-5.99-2.17-8.03-3.2-2.04-1.03-3.81-2.54-5.33-4.54-1.51-1.99-2.27-4.59-2.27-7.81s.82-6.06,2.45-8.38c1.63-2.33,3.89-4.09,6.77-5.29,2.88-1.2,6.14-1.8,9.79-1.8,5.9,0,10.62,1.38,14.14,4.14,3.53,2.76,5.41,6.64,5.65,11.63h-15.33c-.05-1.54-.52-2.69-1.4-3.46-.89-.77-2.03-1.15-3.42-1.15-1.06,0-1.92.31-2.59.94-.67.63-1.01,1.51-1.01,2.66,0,.96.37,1.79,1.12,2.48.74.7,1.67,1.3,2.77,1.8,1.1.5,2.74,1.14,4.89,1.91,3.21,1.1,5.87,2.19,7.95,3.28,2.09,1.08,3.89,2.59,5.4,4.53,1.51,1.94,2.27,4.4,2.27,7.38s-.76,5.73-2.27,8.13c-1.51,2.4-3.7,4.3-6.55,5.69-2.86,1.39-6.23,2.09-10.11,2.09-5.9,0-10.75-1.4-14.54-4.21Z" fill="#fff"/><path d="m871.64.79v50.75h-14.11v-20.37h-17.2v20.37h-14.11V.79h14.11v19.07h17.2V.79h14.11Z" fill="#fff"/><path d="m891.36,48.69c-3.98-2.23-7.14-5.33-9.46-9.29-2.33-3.96-3.49-8.43-3.49-13.42s1.16-9.47,3.49-13.43c2.33-3.96,5.48-7.04,9.46-9.25,3.98-2.21,8.35-3.31,13.1-3.31s9.18,1.1,13.14,3.31c3.96,2.21,7.09,5.29,9.39,9.25,2.3,3.96,3.46,8.44,3.46,13.43s-1.15,9.47-3.46,13.42c-2.3,3.96-5.45,7.05-9.43,9.29-3.98,2.23-8.35,3.35-13.1,3.35s-9.12-1.12-13.1-3.35Zm21.63-13.28c2.09-2.35,3.13-5.49,3.13-9.43s-1.04-7.21-3.13-9.54c-2.09-2.33-4.93-3.49-8.53-3.49s-6.5,1.16-8.57,3.49c-2.06,2.33-3.1,5.51-3.1,9.54s1.03,7.14,3.1,9.47c2.06,2.33,4.92,3.49,8.57,3.49s6.44-1.17,8.53-3.53Z" fill="#fff"/><path d="m1008.69.79l-12.45,50.75h-17.35l-6.98-31.1-7.13,31.1h-17.35l-12.31-50.75h15.26l5.9,34.69,7.99-34.69h15.48l7.77,34.41,5.9-34.41h15.26Z" fill="#fff"/></g></g><g><g><path d="m600.22,170.72c0-1.45-.35-2.6-1.04-3.43-.7-.83-1.78-1.25-3.27-1.25-3.06,0-4.68,2.09-4.87,6.26h-6.35c.19-3.86,1.36-6.79,3.52-8.78,2.16-1.99,4.9-2.99,8.2-2.99s5.96.87,7.76,2.62c1.81,1.75,2.71,4.07,2.71,6.98,0,2.29-.67,4.58-2.02,6.88-1.34,2.3-3.05,4.42-5.12,6.35-2.07,1.93-4.25,3.59-6.54,4.98h14.32v5.33h-23.04v-4.87c10.48-7.26,15.71-13.29,15.71-18.08Z" fill="#fff"/><path d="m611.2,177.3c0-11.06,4.17-16.59,12.52-16.59,4.42,0,7.6,1.48,9.55,4.45,1.95,2.97,2.92,7.01,2.92,12.14s-.97,9.22-2.92,12.19c-1.95,2.97-5.13,4.45-9.55,4.45-8.34,0-12.52-5.55-12.52-16.64Zm18.54,0c0-3.34-.41-5.91-1.23-7.72-.82-1.81-2.42-2.71-4.8-2.71s-4.03.9-4.84,2.71c-.82,1.81-1.23,4.38-1.23,7.72s.41,5.96,1.23,7.76c.82,1.81,2.43,2.71,4.84,2.71s3.98-.9,4.8-2.71c.82-1.81,1.23-4.4,1.23-7.76Z" fill="#fff"/><path d="m655.75,170.72c0-1.45-.35-2.6-1.04-3.43-.7-.83-1.78-1.25-3.27-1.25-3.06,0-4.68,2.09-4.87,6.26h-6.35c.19-3.86,1.36-6.79,3.52-8.78,2.16-1.99,4.9-2.99,8.2-2.99s5.96.87,7.76,2.62c1.81,1.75,2.71,4.07,2.71,6.98,0,2.29-.67,4.58-2.02,6.88-1.34,2.3-3.05,4.42-5.12,6.35-2.07,1.93-4.25,3.59-6.54,4.98h14.32v5.33h-23.04v-4.87c10.48-7.26,15.71-13.29,15.71-18.08Z" fill="#fff"/><path d="m684.23,161.12c1.59.77,2.8,1.84,3.62,3.2.82,1.36,1.23,2.87,1.23,4.54,0,2.1-.57,3.82-1.72,5.17s-2.66,2.17-4.54,2.48v.23c4.57,1.36,6.86,4.05,6.86,8.07,0,2.81-.94,5.09-2.83,6.84-1.89,1.75-4.54,2.62-7.97,2.62-3.65,0-6.55-.9-8.71-2.71-2.16-1.81-3.37-4.53-3.62-8.18h6.4c.15,1.67.7,2.99,1.65,3.96.94.97,2.28,1.46,4.01,1.46,1.48,0,2.64-.41,3.48-1.23.83-.82,1.25-1.89,1.25-3.22,0-1.58-.6-2.78-1.81-3.61-1.2-.83-2.98-1.25-5.33-1.25h-1.34v-5.33h1.34c4.33.06,6.49-1.44,6.49-4.5,0-1.33-.39-2.37-1.16-3.13-.77-.76-1.82-1.14-3.15-1.14s-2.53.44-3.43,1.32c-.9.88-1.41,2.11-1.53,3.69h-6.4c.19-3.34,1.27-5.91,3.25-7.72,1.98-1.81,4.73-2.71,8.25-2.71,2.22,0,4.13.39,5.72,1.16Z" fill="#fff"/><path d="m762.82,161.22v32.73h-6.58v-14.23h-14v14.23h-6.54v-32.73h6.54v13.26h14v-13.26h6.58Z" fill="#fff"/><path d="m795.13,161.22l-11.08,21.28v11.45h-6.58v-11.45l-11.13-21.28h7.51l6.95,14.32,6.95-14.32h7.37Z" fill="#fff"/><path d="m825.4,186.11c-1.36,2.47-3.33,4.4-5.91,5.77-2.58,1.38-5.65,2.06-9.2,2.06h-11.63v-32.73h11.63c3.55,0,6.62.67,9.2,2.02,2.58,1.34,4.55,3.24,5.91,5.7,1.36,2.46,2.04,5.32,2.04,8.6s-.68,6.1-2.04,8.58Zm-7.49-.79c1.93-1.85,2.9-4.45,2.9-7.79s-.97-5.98-2.9-7.83c-1.93-1.85-4.66-2.78-8.18-2.78h-4.54v21.18h4.54c3.52,0,6.25-.93,8.18-2.78Z" fill="#fff"/><path d="m838.89,166.41v8.48h11.59v5.01h-11.59v8.81h12.98v5.24h-19.52v-32.73h19.52v5.19h-12.98Z" fill="#fff"/><path d="m873.75,193.94l-7.65-12.75h-2.87v12.75h-6.54v-32.73h12.47c3.8,0,6.7.93,8.69,2.78,1.99,1.85,2.99,4.3,2.99,7.32,0,2.47-.69,4.54-2.06,6.21-1.38,1.67-3.36,2.78-5.96,3.34l8.16,13.07h-7.23Zm-10.52-17.24h5.38c3.74,0,5.61-1.65,5.61-4.96,0-1.58-.46-2.8-1.37-3.69-.91-.88-2.33-1.32-4.24-1.32h-5.38v9.97Z" fill="#fff"/><path d="m905.18,187.36h-13.12l-2.32,6.58h-6.91l12.05-32.35h7.46l12.01,32.35h-6.91l-2.27-6.58Zm-1.76-4.96l-4.82-13.81-4.82,13.81h9.64Z" fill="#fff"/><path d="m940.89,179.87c1.19,1.47,1.78,3.19,1.78,5.17,0,2.75-.92,4.92-2.76,6.51-1.84,1.59-4.5,2.39-8,2.39h-14.05v-32.73h13.77c3.31,0,5.85.73,7.63,2.18,1.78,1.45,2.66,3.49,2.66,6.12,0,2.04-.53,3.71-1.6,5.01-1.07,1.3-2.46,2.15-4.2,2.55,1.98.4,3.56,1.34,4.75,2.8Zm-16.48-4.94h5.89c1.64,0,2.88-.36,3.73-1.09.85-.73,1.27-1.77,1.27-3.13s-.42-2.41-1.25-3.15c-.83-.74-2.12-1.11-3.85-1.11h-5.79v8.48Zm10.2,12.54c.93-.76,1.39-1.86,1.39-3.32s-.47-2.57-1.41-3.36c-.94-.79-2.28-1.18-4.01-1.18h-6.17v8.99h6.21c1.73,0,3.06-.38,3.99-1.14Z" fill="#fff"/><path d="m967.2,187.36h-13.12l-2.32,6.58h-6.91l12.05-32.35h7.46l12.01,32.35h-6.91l-2.27-6.58Zm-1.76-4.96l-4.82-13.81-4.82,13.81h9.64Z" fill="#fff"/><path d="m1006.65,186.11c-1.36,2.47-3.33,4.4-5.91,5.77-2.58,1.38-5.65,2.06-9.2,2.06h-11.63v-32.73h11.63c3.55,0,6.62.67,9.2,2.02,2.58,1.34,4.55,3.24,5.91,5.7,1.36,2.46,2.04,5.32,2.04,8.6s-.68,6.1-2.04,8.58Zm-7.49-.79c1.93-1.85,2.9-4.45,2.9-7.79s-.97-5.98-2.9-7.83c-1.93-1.85-4.66-2.78-8.18-2.78h-4.54v21.18h4.54c3.52,0,6.25-.93,8.18-2.78Z" fill="#fff"/></g><path d="m700.26,190.89c18.52-4.72,13.41-17.35,20.12-26.02-6.71,8.67-18.5,6.29-20.12,26.02" fill="#fff" fill-rule="evenodd"/></g></g></svg>