<svg xmlns="http://www.w3.org/2000/svg" width="44" height="44" viewBox="0 0 44 44">
  <g id="Group_10048" data-name="Group 10048" transform="translate(-39 -38)">
    <g id="Group_225" data-name="Group 225" transform="translate(11 2)">
      <circle id="Ellipse_272" data-name="Ellipse 272" cx="22" cy="22" r="22" transform="translate(28 36)" fill="#1f8f4e"/>
    </g>
    <path id="ic_speaker_notes_24px" d="M20,2H4A2,2,0,0,0,2.01,4L2,22l4-4H20a2.006,2.006,0,0,0,2-2V4A2.006,2.006,0,0,0,20,2ZM8,14H6V12H8Zm0-3H6V9H8ZM8,8H6V6H8Zm7,6H10V12h5Zm3-3H10V9h8Zm0-3H10V6h8Z" transform="translate(49 50)" fill="#fff"/>
  </g>
</svg>
