<?xml version="1.0" encoding="UTF-8"?><svg id="Layer_1" xmlns="http://www.w3.org/2000/svg" viewBox="0 0 605.88 129.51"><g><path d="m54.32,20.44c.5,0,1,0,1.49.02l-29.58,63.22c-5.24,11.2,2.34,19.08,12.4,17.83,2.41-.67,5.91-1.68,8.37-2.17l-7.32,17.12c-5.71-11.83-12.03-7.07-22.42-9.37-7.09-1.57-5.22-9.42-3.04-14.66,6.18-14.86,21.57-48.68,31.87-71.38,2.68-.41,5.43-.62,8.23-.62m5.63.29c2.01.21,3.99.53,5.94.95l-22.3,45.28c-2.61,5.31,1.23,11.59,6.59,12.11,2.81.27,5.91-2.81,7.62-2.34l-5.6,11.94c-2.28-3.26-4.68-3.61-8.16-3.33-3.18.26-11.85-5.11-6.03-17.59l21.95-47.03Zm10.15,2.04c2.82.86,5.54,1.94,8.15,3.22l-3.2,6.05c-.08.14-.15.28-.23.41-7.68,13.71-14.33,6.34-10.9,25.58.42,2.33-2.04,9.59-2.82,10.44-.9-2.28-12.13-1.31-7.4-10.48l16.39-35.21Zm11.91,5.25c3.31,1.97,6.4,4.28,9.21,6.88l-1.77,3.85-9.5,23.25c-3.37,8.25-6.37,2.47-11.2,5.39-2.09,1.26-2.96,1.8-3.18,1.71,1.59-10.78,9.17-9.5,13.05-15.29,4.39-6.55-4.13-6.7.69-19.31.05-.12,1.23-2.98,2.69-6.49m11.71,9.35c1.4,1.47,2.71,3.02,3.93,4.63l-14.54,35.49c-2.22,5.41-9.25,11.15-14.5,9.87-4.35-1.06-7.76.05-12.14,1.65l5.6-11.82c1.6-.16,4.65,3.9,8.25,3.09,3.41-.78,6.47-2.42,8.45-7.15l14.96-35.76Zm6.09,7.69c1.33,2.03,2.52,4.15,3.57,6.36l-17.08,45.8c-6.82,17.39-14.21,17.3-26.12,14.05-5.99-.31-8.63,1.87-13.72,3.12l6.85-17.19c10.22,13.67,21.58,10.89,27.69-3.25l18.81-48.88Zm5.57,11.12c2.11,5.79,3.26,12.05,3.26,18.57,0,22.03-13.12,41-31.98,49.52,3.22-3.2,5.71-7.12,7.33-11.4l21.39-56.69ZM5.48,98.56c-3.51-7.19-5.48-15.26-5.48-23.8C0,49.61,17.11,28.45,40.33,22.27L5.48,98.56Z" fill="#fff" fill-rule="evenodd"/><path d="m244.61,114.91h-10.2l-1.85,5.3h-14.49l14.11-38.59,14.87-.03,13.82,38.62h-14.44s-1.83-5.3-1.83-5.3Zm-1.94-8.35l-3.2-11.92-3.21,11.92h6.41Z" fill="#fff"/><polygon points="126.56 81.61 139.93 81.61 139.93 97.73 149.42 81.61 164.98 81.61 152.75 100.51 165.7 120.21 150.64 120.21 139.93 104.1 139.93 120.21 126.56 120.21 126.56 81.61" fill="#fff"/><rect x="168.6" y="81.55" width="13.71" height="38.6" fill="#fff"/><path d="m186.41,116.59l4.67-10.06c1.62,1.14,6.12,4.05,10.67,3.81,2.62-.14,2.9-2.54,1.16-3.38-3.19-1.54-6.31-1.04-10.61-4.34-2.02-1.55-3.95-4.89-3.67-9.16,1.16-8.68,6.94-12.71,15.61-12.47,6.86-.21,12.25,2.24,13.67,3.24l-4.63,9.73c-8.69-4.91-12.4-1.78-10.15.53,1.37,1.61,7.87,1.38,11.71,4.99,7.88,6.42,1.45,21.24-10.41,21.7-6.17.24-12.96-.82-18.02-4.6" fill="#fff"/><polygon points="263.59 81.61 276.85 81.61 288.47 101.08 288.47 81.61 301.85 81.62 301.86 120.2 288.62 120.21 276.89 101.05 276.86 120.21 263.59 120.2 263.59 81.61" fill="#fff"/><rect x="126.56" y="67.18" width="175.29" height="3.5" fill="#fff"/><path d="m297.4,28.26c-3.3-3.4-8.06-5.09-14.28-5.09h-10.66c-2.02,0-3.02-.37-3.02-1.1s.94-1.1,2.82-1.1h18.22v-6.93h-18.28c-1.84,0-2.76-.35-2.76-1.04s.9-.97,2.68-.97h25.98v-7.93h-30.56c-6.82,0-10.22,2.34-10.22,7.01,0,3,1.68,5.07,5.02,6.26-1.32.18-2.42.85-3.26,2.04-.86,1.17-1.28,2.46-1.28,3.87,0,4.46,2.42,7.23,7.37,7.97.91.14,1.92.22,2.99.23l2.62.03h9.31c3.14,0,5.36.54,6.66,1.62,1.5,1.19,2.26,3.28,2.26,6.33,0,4.2-1.4,6.31-4.22,6.31-1.34,0-2.22-.55-2.62-1.67-.42-1.1-.78-2.28-1.1-3.5-1.4-4.72-5.56-7.08-12.48-7.08-5.52,0-9.74,1.31-12.64,3.93-2.6,2.36-3.9,5.52-3.9,9.51,0,3.16,1.16,6.21,3.48,9.16h12.5c-2.42-4.29-3.62-7.35-3.62-9.19,0-2.98,1.06-4.47,3.16-4.47,1.14,0,1.9.89,2.28,2.64.7,3.3,1.12,5.06,1.22,5.29.48,1.76,1.78,3.23,3.86,4.44,2.08,1.19,4.5,1.79,7.26,1.79,6.56,0,11.56-1.61,15.04-4.82,3.08-2.93,4.62-6.85,4.62-11.73s-1.48-8.77-4.46-11.8" fill="#fff"/><path d="m238.51,22.37h-15.73c-1.23-2.52-2.88-4.72-4.95-6.58-4.82-4.34-11.62-6.6-20.38-6.78l-4.3,10.11c1.02-.03,2-.07,2.92-.07,5.24,0,9.19,1.11,11.88,3.31h-34.06v8.84h38.55c.33,1.86.49,3.97.49,6.31,0,5.84-1.94,8.75-5.84,8.75-1.4,0-2.34-.6-2.84-1.82-.38-1.41-.72-2.78-1.04-4.13-1.46-4.74-5.82-7.1-13.06-7.1-5.08,0-9.06,1.16-11.92,3.45-3.02,2.39-4.54,5.81-4.54,10.24,0,3.6,1.08,6.68,3.24,9.21h13.06c-2.54-3.2-3.82-6.26-3.82-9.19s1.06-4.47,3.16-4.47c1.62,0,2.54.8,2.76,2.39.22,1.59.42,3.23.58,4.89,1.12,4.72,5.56,7.08,13.3,7.08,6.82,0,11.9-2.19,15.26-6.58,2.86-3.7,4.3-8.54,4.3-14.51,0-1.57-.09-3.08-.26-4.52h4.24c-1,1.17-1.5,2.63-1.5,4.39,0,2.43,1.16,4.35,3.5,5.74,2.04,1.22,4.64,1.82,7.78,1.82,3.58,0,6.62-.95,9.1-2.88,2.5-1.93,3.74-4.39,3.74-7.42,0-7-4.54-10.5-13.62-10.5m1.04,12.76c-1.3,0-1.94-.55-1.94-1.66s.64-1.66,1.94-1.66,2.02.55,2.02,1.66-.68,1.66-2.02,1.66" fill="#fff"/><path d="m155.58,34.32h-10.16c-2.82,0-4.22-.64-4.22-1.89,0-1.67,2.28-2.41,6.82-2.23,2.06.08,3.5.25,4.3.47,1.36.45,2.28,1.36,2.76,2.71h12.58c-.04-4.6-2.43-7.62-7.1-9.02,3.01-2.28,4.52-4.65,4.52-7.15,0-3.65-1.76-6.65-5.26-9.01-3.5-2.34-8.18-3.52-14-3.52-5.5,0-9.68,1.02-12.54,3.05-2.16,1.54-3.24,3.23-3.24,5.09,0,5.02,4.02,7.53,12.06,7.53,2.1,0,4.18-.43,6.24-1.29,2.48-1,4.22-2.41,5.24-4.22.56.69.82,1.32.82,1.92,0,1.32-1.02,2.56-3.08,3.72-1.84,1.05-3.62,1.57-5.34,1.57-4.76,0-8.14-.74-10.14-2.19l-7.12,3.85c1.15.7,2.22,1.3,3.22,1.83-3.58,1.75-5.38,4.45-5.38,8.11,0,6.06,5.06,9.09,15.18,9.09h9.08c2.54,0,3.82.59,3.82,1.76,0,1.84-2.12,2.76-6.34,2.76-4.56,0-7.18-1-7.82-3.01h-13.92c.66,7.9,7.86,11.85,21.62,11.85,5.58,0,10.24-.85,13.98-2.58,4.66-2.13,7-5.34,7-9.64,0-6.38-4.52-9.57-13.58-9.57m-13.78-20.29c-1.12,0-1.68-.4-1.68-1.19s.56-1.12,1.68-1.12,1.68.37,1.68,1.12-.56,1.19-1.68,1.19" fill="#fff"/></g><g><path d="m448.99,51.68h-19.26v8.53c.8-.94,1.98-1.66,3.45-2.22,1.49-.55,3.08-.87,4.82-.87,3.08,0,5.69.67,7.71,2.1,2.05,1.42,3.52,3.21,4.46,5.42.92,2.22,1.42,4.63,1.42,7.23,0,4.82-1.37,8.63-4.07,11.42-2.72,2.84-6.56,4.24-11.5,4.24-3.28,0-6.17-.55-8.58-1.71-2.41-1.11-4.31-2.65-5.62-4.7-1.3-2.02-2.02-4.31-2.17-6.97h10.32c.24,1.28.87,2.34,1.78,3.13.94.87,2.24,1.3,3.9,1.3,1.9,0,3.4-.63,4.31-1.86.94-1.23,1.42-2.89,1.42-4.94s-.48-3.57-1.47-4.63c-.99-1.04-2.41-1.59-4.34-1.59-1.42,0-2.53.29-3.45.99-.94.67-1.49,1.59-1.78,2.7h-10.19v-26.85h28.82v9.25Z" fill="#fff"/><path d="m350.32,55.2c.19-4.36,1.61-7.76,4.31-10.17,2.72-2.41,6.43-3.59,11.06-3.59,3.08,0,5.74.55,7.95,1.61,2.17,1.04,3.83,2.53,5.01,4.39,1.11,1.86,1.66,3.95,1.66,6.22,0,2.72-.67,4.94-2.05,6.6-1.35,1.74-2.96,2.92-4.75,3.52v.27c2.34.8,4.19,2.1,5.57,3.88,1.35,1.78,2.02,4.15,2.02,6.97,0,2.53-.55,4.82-1.74,6.75-1.16,1.98-2.89,3.52-5.11,4.63-2.29,1.11-4.94,1.66-8.03,1.66-4.94,0-8.89-1.23-11.79-3.64-2.96-2.41-4.51-6.12-4.7-10.99h10.24c.07,1.78.55,3.21,1.54,4.27.99,1.04,2.41,1.59,4.34,1.59,1.59,0,2.82-.48,3.76-1.42.87-.92,1.3-2.1,1.3-3.64,0-1.98-.63-3.4-1.86-4.31-1.3-.87-3.28-1.3-6.05-1.3h-1.98v-8.58h1.98c2.1,0,3.81-.36,5.11-1.11,1.3-.67,1.93-1.98,1.93-3.83,0-1.47-.43-2.65-1.25-3.45-.8-.82-1.98-1.23-3.37-1.23-1.54,0-2.72.48-3.47,1.4-.8.94-1.23,2.1-1.35,3.52h-10.32Z" fill="#fff"/><polygon points="406.52 58.62 406.52 67.39 390.42 67.39 390.42 58.62 406.52 58.62" fill="#fff" fill-rule="evenodd"/><path d="m605.88,94.41c0,2.75-.94,4.99-2.84,6.8-1.64,1.54-3.35,2.31-5.25,2.31-3.01,0-4.82-.84-5.5-2.58-1.3,1.74-3.28,2.58-5.86,2.58-2.07,0-3.71-.6-4.92-1.88-1.28-1.3-1.88-2.84-1.88-4.48,0-1.11.27-2.14.77-3.35h-5.86v-4.72h15.16v4.22c-.43-.27-.77-.36-.87-.36-.94,0-1.81.43-2.58,1.37-.7.87-1.04,1.9-1.04,3.01,0,1.64.7,2.51,2.14,2.51.7,0,1.21-.34,1.74-1.11.43-.8.6-1.57.6-2.34v-.67h5.66c-.07.24-.07.51-.07.77,0,1.71.77,2.58,2.24,2.58.67,0,1.37-.53,2.05-1.47.7-.94,1.04-1.88,1.04-2.92,0-2.84-1.21-4.39-3.62-4.48h-1.64v-4.72c.43-.17,1.04-.27,1.98-.27,2.51,0,4.48.87,6.12,2.68s2.41,3.95,2.41,6.53Z" fill="#fff"/><path d="m511.12,73.32c0,4.46-1.54,8-4.77,10.8-2.8,2.39-6.12,3.64-10.17,3.64-3.01,0-5.4-1.16-7.06-3.42-1.45,2.17-3.95,3.21-7.28,3.21-2.48,0-4.77-.94-6.75-2.7-2.48-2.17-3.74-5.09-3.74-8.72,0-3.01,1.13-5.62,3.42-7.78,2.19-2.07,4.89-3.11,8.1-3.11s6.03.92,8.1,2.89c2.41,2.19,3.54,5.3,3.54,9.25.82,1.66,1.76,2.48,2.8,2.48,1.88,0,3.45-.94,4.68-2.7,1.25-1.76,1.88-3.74,1.88-5.9,0-3.13-1.04-5.71-3.11-7.81-2.19-2.07-4.8-3.11-7.81-3.11-1.35,0-3.11.22-5.28.53-2.29.41-4.07.63-5.42.63-3.21,0-5.81-1.06-7.98-3.13-2.29-2.17-3.23-5.09-2.92-8.51h7.37c-.1,1.04.1,2.07.72,2.92.72,1.13,1.76,1.64,3.23,1.64,2.07,0,4.05-1.04,5.9-3.21,1.78-2.07,3.45-4.05,5.21-6.12,2.29-2.19,4.87-3.23,8-3.23,1.04,0,1.86.1,2.7.31v8.1c-1.25-.94-2.39-1.35-3.45-1.45-2.8-.22-4.96,1.35-6.53,4.77,11.11.22,16.61,6.75,16.61,19.74Zm-24.08,3.21c0-3.33-1.25-4.96-3.95-4.96-3.01,0-4.58,1.35-4.58,4.15,0,3.21,1.35,4.77,3.95,4.77,1.13,0,2.19-.41,3.11-1.25.94-.82,1.47-1.76,1.47-2.7Zm69.17-9.23c0,3.83-1.16,7.16-3.42,9.98-2.41,2.8-5.3,4.15-8.94,4.15-2.39,0-4.58-.94-6.56-2.8-1.86-1.88-2.89-4.07-2.89-6.56,0-3.01,1.04-5.4,3.01-7.28,1.86-1.66,4.15-2.48,6.75-2.48,1.13,0,2.17.22,3.21.53-.6-1.25-1.45-1.98-2.58-2.29-.84-.22-2.29-.31-4.58-.31h-10.8c1.86,3.11,2.8,6.65,2.8,10.58,0,4.58-1.45,8.53-4.36,11.86-3.01,3.21-6.53,4.87-10.7,4.87s-7.57-1.35-9.86-4.05c-1.57-1.86-2.29-3.74-2.29-5.5,0-2.07.63-4.48,1.88-7.37,1.23-2.82,2.29-4.17,3.01-4.17.19,0,.41.22.41.75,1.76,5.71,2.7,8.6,2.8,9.01,1.25,2.6,3.13,3.95,5.52,3.95,2.07,0,3.74-1.13,5.09-3.33,1.35-2.07,1.98-4.36,1.98-6.84,0-2.29-.63-4.36-1.78-6.24-1.45-2.27-3.42-3.42-5.9-3.52h-2.82v-6.75l.12-.12h27.93c4.46,0,8,1.88,10.39,5.62,1.76,2.7,2.6,5.5,2.6,8.31Zm-8.41,4.15c0-1.35-.22-2.29-.75-2.8-.41-.41-1.45-.72-2.99-.72-1.98,0-3.01,1.23-3.01,3.52,0,2.7,1.04,4.05,3.01,4.05.92,0,1.76-.51,2.58-1.45.72-.94,1.16-1.76,1.16-2.6Zm49.21-4.56c0,4.46-1.23,8.51-3.64,12.03-3.83,5.52-9.13,8.22-16.2,8.22-5.4,0-9.76-1.25-13.18-3.64-3.74-2.6-5.62-6.34-5.62-11.11,0-3.23,1.04-5.93,3.11-8.1v-.31c-1.04-3.33-1.54-4.99-1.54-4.99,0-2.92,1.25-5.3,3.64-7.37,2.8-2.48,6.63-3.74,11.74-3.74,6.34,0,11.62,1.88,15.79,5.71,3.93,3.64,5.9,8.1,5.9,13.3Zm-22.44-8.85c0-2.17-.92-3.33-2.89-3.33-.94,0-1.66.31-2.29,1.04-.63.75-.94,1.57-.94,2.29,0,2.19,1.04,3.33,3.23,3.33,1.98,0,2.89-1.13,2.89-3.33Zm14.56,10.07c0-2.58-.63-5.09-2.07-7.37-1.35-2.48-3.23-3.83-5.3-4.15h-.31v1.35c0,3.33-1.35,5.81-4.05,7.69-2.51,1.66-5.52,2.48-9.13,2.48l-.22.12c-.94.72-1.45,2.27-1.45,4.68,0,2.27,1.13,4.05,3.33,5.5,1.95,1.25,4.36,1.88,7.16,1.88,3.64,0,6.53-1.16,8.72-3.54,2.17-2.29,3.33-5.18,3.33-8.63Z" fill="#fff"/></g><g><g><path d="m357.9,110.28c0-.68-.16-1.22-.49-1.61-.33-.39-.84-.59-1.54-.59-1.44,0-2.2.98-2.29,2.95h-2.99c.09-1.82.64-3.2,1.66-4.14,1.02-.94,2.31-1.41,3.86-1.41s2.8.41,3.66,1.23c.85.82,1.28,1.92,1.28,3.29,0,1.08-.32,2.16-.95,3.24s-1.44,2.08-2.41,2.99c-.98.91-2,1.69-3.08,2.35h6.74v2.51h-10.85v-2.29c4.93-3.42,7.4-6.26,7.4-8.51Z" fill="#fff"/><path d="m363.07,113.38c0-5.21,1.96-7.81,5.89-7.81,2.08,0,3.58.7,4.5,2.1.92,1.4,1.38,3.3,1.38,5.72s-.46,4.34-1.38,5.74c-.92,1.4-2.42,2.1-4.5,2.1-3.93,0-5.89-2.61-5.89-7.84Zm8.73,0c0-1.57-.19-2.78-.58-3.63-.39-.85-1.14-1.28-2.26-1.28s-1.9.43-2.28,1.28c-.39.85-.58,2.06-.58,3.63s.19,2.8.58,3.66c.39.85,1.15,1.28,2.28,1.28s1.87-.43,2.26-1.28c.39-.85.58-2.07.58-3.66Z" fill="#fff"/><path d="m384.05,110.28c0-.68-.16-1.22-.49-1.61-.33-.39-.84-.59-1.54-.59-1.44,0-2.2.98-2.29,2.95h-2.99c.09-1.82.64-3.2,1.66-4.14,1.02-.94,2.31-1.41,3.86-1.41s2.8.41,3.66,1.23c.85.82,1.28,1.92,1.28,3.29,0,1.08-.32,2.16-.95,3.24s-1.44,2.08-2.41,2.99c-.98.91-2,1.69-3.08,2.35h6.74v2.51h-10.85v-2.29c4.93-3.42,7.4-6.26,7.4-8.51Z" fill="#fff"/><path d="m397.46,105.77c.75.36,1.32.87,1.7,1.51.39.64.58,1.35.58,2.14,0,.99-.27,1.8-.81,2.43s-1.25,1.02-2.14,1.17v.11c2.15.64,3.23,1.91,3.23,3.8,0,1.32-.44,2.4-1.33,3.22-.89.82-2.14,1.23-3.75,1.23-1.72,0-3.08-.43-4.1-1.28-1.02-.85-1.59-2.14-1.7-3.85h3.01c.07.79.33,1.41.77,1.87.44.46,1.07.69,1.89.69.7,0,1.24-.19,1.64-.58.39-.38.59-.89.59-1.52,0-.74-.28-1.31-.85-1.7-.57-.39-1.4-.59-2.51-.59h-.63v-2.51h.63c2.04.03,3.06-.68,3.06-2.12,0-.63-.18-1.12-.55-1.47-.36-.36-.86-.54-1.48-.54s-1.19.21-1.62.62c-.42.42-.66.99-.72,1.74h-3.01c.09-1.57.6-2.78,1.53-3.63.93-.85,2.23-1.28,3.88-1.28,1.05,0,1.95.18,2.7.55Z" fill="#fff"/></g><path d="m407.53,119.78c8.72-2.22,6.32-8.17,9.47-12.25-3.16,4.08-8.71,2.96-9.47,12.25" fill="#fff" fill-rule="evenodd"/><path d="m432.21,104.58c0,2.9-1.6,4.38-4.87,4.38h-3.5v-2.82h3.5c.9,0,1.37-.32,1.37-1.01,0-.41-.47-.64-1.37-.64h-3.22c-1.6,0-2.51.28-2.7.83v-3.97h7.25c2.36,0,3.55,1.06,3.55,3.22Zm8.87,9.86c0,1.56-.63,3.05-1.81,4.38-1.37,1.52-3.08,2.31-5.06,2.31-1.33,0-2.42-.51-3.22-1.43-.9.92-2.28,1.43-4.07,1.43-1.56,0-2.8-.55-3.65-1.56-.76-.93-1.14-1.98-1.14-3.28s.42-2.35,1.33-3.27c.99-1.11,2.47-1.66,4.35-1.66,1.39,0,2.57.51,3.56,1.58,1.04,1.05,1.52,2.26,1.52,3.59.28.79.8,1.15,1.66,1.15.13,0,.28,0,.42-.04.71,0,1.37-.36,1.98-1.2s.9-1.71.9-2.63-.29-1.85-.86-2.9c-.7-1.39-1.6-2.03-2.64-2.03h-1.14v-2.9h1.42c1.71,0,3.18.64,4.32,1.93,1.42,1.53,2.13,3.73,2.13,6.55Zm-11.7,1.79c0-.55-.19-1.01-.57-1.39-.34-.36-.82-.54-1.39-.54-1.27,0-1.88.64-1.88,1.97,0,1.25.61,1.85,1.88,1.85.57,0,1.05-.19,1.39-.55.38-.36.57-.83.57-1.34Zm13.16,13.28h-15.35c-1.23,0-2.28-.36-3.17-1.11-.9-.73-1.33-1.71-1.33-2.86,0-.92.42-1.75,1.27-2.44.82-.69,1.77-1.06,2.8-1.06.95,0,1.75.32,2.42.92.7.66,1.04,1.39,1.04,2.31,0,.6-.09,1.06-.34,1.39h12.65v2.86Zm-15.16-3.97c0-.6-.34-.92-.95-.92s-.95.32-.95.92c0,.28.15.47.38.7.29.18.57.28.9.28.42,0,.61-.32.61-.98Zm25.06-13.13c0,1.56-.53,2.95-1.6,4.14-1.18,1.3-2.61,1.94-4.32,1.94-1.14,0-2.13-.41-2.98-1.2-.9-.83-1.33-1.79-1.33-2.9,0-1.39.42-2.45,1.27-3.33.86-.82,2.09-1.24,3.71-1.24.51,0,1.04.04,1.6.15-.57-.66-1.33-1.02-2.23-1.15-.66-.15-1.98-.19-4.03-.19h-9.8v-2.95h9.34c3.6,0,5.73.13,6.45.41,2.6.98,3.92,3.09,3.92,6.32Zm-3.92,1.39c0-.88-.48-1.3-1.43-1.3s-1.47.47-1.47,1.39.48,1.47,1.39,1.47c.99,0,1.52-.51,1.52-1.56Zm23.11.28c0,1.88-.61,3.5-1.84,4.93-1.24,1.43-2.76,2.12-4.65,2.12-.89,0-1.56-.23-1.98-.6-.28-.41-.53-.79-.8-1.15-.99,1.15-2.19,1.75-3.56,1.75-1.56,0-2.84-.64-3.88-1.98-1.04-1.28-1.56-2.9-1.56-4.79,0-2.63.95-4.7,2.89-6.23,1.71-1.37,3.84-2.07,6.3-2.07,2.89,0,5.12.7,6.73,2.12,1.56,1.43,2.36,3.41,2.36,5.91Zm-3.21-.6c.04-1.25-.38-2.35-1.28-3.28-1.05-1.09-2.57-1.65-4.41-1.65-1.43,0-2.76.55-3.94,1.65-1.37,1.21-2.03,2.63-2.03,4.33,0,.79.19,1.47.51,2.07.38.66.95,1.02,1.62,1.02,1.27,0,1.9-1.11,1.9-3.31h3.59c-.13.6-.23,1.05-.23,1.28.19,1.43.76,2.12,1.75,2.12.76,0,1.39-.45,1.85-1.43.38-.82.61-1.75.67-2.8Zm1.27-8.16c-.23-.15-.85-.19-1.9-.19-1.14,0-2.41.6-3.88,1.79-1.47,1.24-2.8,1.84-3.94,1.84-1.56,0-2.79-.41-3.65-1.2-.95-.82-1.37-1.97-1.23-3.46h3.46c-.04.19-.04.38-.04.55,0,.88.61,1.34,1.84,1.34.67,0,1.39-.28,2.04-.88.53-.55,1.05-1.11,1.56-1.66.53-.55.95-.92,1.24-1.05.61-.28,1.46-.42,2.55-.42.95,0,1.56.09,1.94.32v3.01Zm19.48,8.2c0,2.12-.9,3.91-2.66,5.44-1.71,1.43-3.65,2.16-5.88,2.16-2.45,0-4.45-.79-5.92-2.35-1.31-1.47-2.03-3.31-2.03-5.57,0-2.03.85-3.73,2.55-5.16,1.75-1.43,3.75-2.16,6.03-2.16s4.07.73,5.59,2.2c1.56,1.47,2.32,3.27,2.32,5.44Zm-3.41.04c0-1.39-.42-2.49-1.37-3.31-.9-.83-2.04-1.25-3.46-1.25-1.28,0-2.36.42-3.27,1.3-.86.83-1.33,1.84-1.33,3.08,0,1.43.42,2.54,1.23,3.37.86.83,1.9,1.24,3.18,1.24,1.37,0,2.55-.41,3.55-1.24,1.01-.88,1.47-1.9,1.47-3.18Zm14.17-.79c0,1.62-.42,3.01-1.33,4.16-.99,1.24-2.22,1.88-3.73,1.88-1.33,0-2.47-.45-3.37-1.33-.9-.89-1.37-1.98-1.37-3.24s.57-2.31,1.71-3.12c1.09-.83,2.28-1.25,3.55-1.25.25,0,.48.04.71.1-.53-.74-1.42-1.11-2.74-1.11h-21.23v-3.41h20.47c1.42,0,2.51.19,3.31.55,1.24.6,2.23,1.56,2.99,2.95.7,1.3,1.04,2.54,1.04,3.82Zm-3.41,1.34c0-.42-.13-.79-.47-1.11-.29-.32-.67-.51-1.09-.51s-.8.19-1.14.51-.47.69-.47,1.11.13.79.47,1.11.71.45,1.14.45.8-.13,1.09-.45c.34-.32.47-.7.47-1.11Zm23.31-.42c0,2.09-.66,3.79-2.04,5.16-1.37,1.43-3.12,2.13-5.25,2.13-.66,0-1.18-.15-1.6-.42-.1-.09-.53-.45-1.2-1.11-1.14,1.11-2.51,1.66-4.11,1.66-1.52,0-2.7-.47-3.56-1.39-.8-.83-1.23-1.88-1.23-3.18,0-2.25,1.28-3.78,3.84-4.61.57-.13,1.14-.32,1.71-.5.47-.23.71-.6.71-1.15,0-.88-.48-1.3-1.47-1.3-1.33,0-2,.66-2,1.94h-2.89c0-3.27,1.71-4.89,5.08-4.89,1.33,0,2.41.36,3.17,1.11.82.73,1.2,1.75,1.2,3.03s-.53,2.36-1.52,3.05c-.95.36-1.9.79-2.89,1.2-1.01.47-1.52,1.11-1.52,1.94,0,.45.19.83.57,1.15.42.32.85.45,1.37.45,1.14-.04,1.79-.55,1.94-1.43.04-.55.04-1.01-.04-1.37h3.41v.77c0,.6.28,1.06.85,1.53.47.32.95.5,1.37.5.9,0,1.66-.5,2.28-1.52.57-.92.86-1.98.86-3.09,0-1.93-.76-3.4-2.33-4.38-.51-.36-1.37-.6-2.45-.69v-2.35h1.42c1.79,0,3.31.73,4.55,2.26,1.18,1.47,1.79,3.31,1.79,5.47Zm11.23-1.28c0,1.56-.53,2.95-1.62,4.14-1.18,1.3-2.6,1.94-4.3,1.94-1.14,0-2.13-.41-2.99-1.2-.89-.83-1.33-1.79-1.33-2.9,0-1.39.44-2.45,1.28-3.33.85-.82,2.09-1.24,3.69-1.24.53,0,1.05.04,1.62.15-.57-.66-1.33-1.02-2.23-1.15-.66-.15-1.98-.19-4.03-.19h-9.8v-2.95h9.34c3.59,0,5.73.13,6.43.41,2.61.98,3.94,3.09,3.94,6.32Zm-3.94,1.39c0-.88-.47-1.3-1.42-1.3s-1.47.47-1.47,1.39.48,1.47,1.37,1.47c1.01,0,1.52-.51,1.52-1.56Zm23.12.28c0,1.88-.61,3.5-1.85,4.93-1.23,1.43-2.74,2.12-4.64,2.12-.9,0-1.56-.23-1.98-.6-.29-.41-.53-.79-.82-1.15-.99,1.15-2.17,1.75-3.55,1.75-1.56,0-2.84-.64-3.88-1.98-1.05-1.28-1.58-2.9-1.58-4.79,0-2.63.95-4.7,2.9-6.23,1.69-1.37,3.84-2.07,6.29-2.07,2.9,0,5.12.7,6.74,2.12,1.56,1.43,2.36,3.41,2.36,5.91Zm-3.22-.6c.04-1.25-.38-2.35-1.28-3.28-1.04-1.09-2.55-1.65-4.41-1.65-1.42,0-2.74.55-3.92,1.65-1.37,1.21-2.04,2.63-2.04,4.33,0,.79.19,1.47.53,2.07.38.66.95,1.02,1.6,1.02,1.28,0,1.9-1.11,1.9-3.31h3.6c-.15.6-.23,1.05-.23,1.28.19,1.43.76,2.12,1.75,2.12.76,0,1.37-.45,1.85-1.43.38-.82.61-1.75.66-2.8Zm1.75-13.41h-9.99c-.76,0-1.14.26-1.14.77,0,.6.38.92,1.14.92h7.78v2.73h-8.01c-.53,0-.8.23-.8.69,0,.51.23.79.7.79h1.01c1.18,0,1.79.41,1.79,1.28,0,.74-.23,1.2-.76,1.34-.23.09-.57.13-1.04.13h-2.8c-.38,0-.8-.22-1.42-.73-.82-.64-1.2-1.43-1.2-2.35s.34-1.66,1.05-2.22c-.95-.6-1.43-1.56-1.43-2.82,0-.77.34-1.52,1.05-2.25.8-.79,1.75-1.21,2.84-1.21h11.22v2.92Z" fill="#fff"/></g><g><path d="m383.38,28.34c0,1.19-.45,2.33-1.35,3.44-1.13,1.38-2.64,2.07-4.53,2.07-1.43,0-2.58-.51-3.44-1.53-.67-.78-1.03-1.65-1.06-2.61-.04-.92.45-1.85,1.45-2.79-1.13.06-2.55.26-4.26.58v-2.04h6.73l.43,2.36c-.1,0-.21-.06-.35-.16-.13-.11-.31-.16-.51-.16-.74,0-1.11.32-1.11.95,0,1.16.88,1.73,2.63,1.73.74,0,1.41-.26,2-.77.69-.57,1.03-1.35,1.03-2.33,0-.34-.11-.78-.34-1.32-.29-.67-.66-1.16-1.11-1.47-.76-.36-1.51-.74-2.26-1.12-.82-.5-1.23-1.27-1.23-2.33,0-.67.21-1.28.63-1.84.55-.74,1.36-1.12,2.41-1.12.86,0,1.53.33,2.01.98.38.52.57,1.11.57,1.79,0,.23-.08.47-.23.74-.18.33-.38.51-.6.55.02-.18-.02-.53-.11-1.03-.23-.69-.84-1.03-1.86-1.03s-1.45.49-1.45,1.47c0,.63.36,1.1,1.09,1.41,1.39.57,2.31,1.04,2.77,1.38,1.37,1.06,2.06,2.45,2.06,4.2m108.87-13.11c0,2.53-.81,4.87-2.42,6.99-1.62,2.13-3.47,3.19-5.55,3.19-3.11,0-4.95-1.17-5.54-3.49-.13-.53-.2-1.15-.2-1.84,0-1.58.42-3.67,1.25-6.26.53.8,1.06,1.62,1.56,2.44.97,1.24,2.19,1.85,3.66,1.85s2.71-.41,3.72-1.23c1-.81,1.5-1.94,1.5-3.38s-.55-2.72-1.65-3.65c-.99-.83-2.15-1.25-3.45-1.25-1,0-1.83.24-2.49.72v-3.48c.45-.05.89-.08,1.32-.08,2.57,0,4.63.99,6.17,2.97,1.41,1.82,2.13,3.99,2.13,6.5m-13.9-10.84c-.88-.58-1.89-.88-3.01-.88-.67,0-1.31.23-1.91.68-.59.46-1.17.9-1.7,1.34-1.34.96-2.16,1.51-2.44,1.65-.99.48-2.32.72-3.98.72-1.15,0-2.29-.43-3.44-1.29-1.4-1.02-2.08-2.33-2.05-3.91h5.41c-.02.3-.04.56-.04.8,0,1.42.75,2.14,2.25,2.14,1.07,0,2.17-.7,3.29-2.11,1.36-1.7,2.27-2.68,2.72-2.93.78-.4,1.62-.6,2.53-.6.99,0,1.78.25,2.36.73v3.65Zm-15.18,9.49c0-1.62-.55-2.94-1.66-3.94-1.11-1-2.55-1.5-4.34-1.5s-3.19.51-4.28,1.54c-1.1,1.03-1.64,2.35-1.64,3.98s.54,2.88,1.62,3.84c1.08.96,2.51,1.44,4.3,1.44s3.24-.49,4.34-1.48c1.11-.98,1.66-2.28,1.66-3.88m17.04,2.16c0,2.33-.65,4.43-1.97,6.33-1.6,2.29-3.79,3.43-6.54,3.4-2.89-.03-4.91-1.26-6.06-3.69-1.65,1.45-2.92,2.4-3.77,2.86-1.32.67-2.88,1.01-4.7,1.01-3.03,0-5.54-.96-7.55-2.89-2.01-1.92-3.01-4.27-3.01-7.05s1-5.13,3.01-7.05c2-1.93,4.51-2.89,7.53-2.89s5.55.97,7.59,2.9c2.05,1.94,3.07,4.27,3.07,7.02,0,.11.03.38.08.8.51.46,1.02.89,1.53,1.32.46.33,1.29.49,2.49.49.99,0,1.9-.39,2.73-1.16,1.02-.9,1.53-2.11,1.53-3.62,0-1.72-.9-3.22-2.69-4.49-1.57-1.15-3.13-1.67-4.65-1.59-.91.05-1.37-.13-1.37-.54,0-.19.14-.48.41-.87.21-.09,1.06-.13,2.53-.13,2.84,0,5.22,1.04,7.15,3.13,1.77,1.95,2.65,4.19,2.65,6.73m-38.52-.8c0-.64-.23-1.19-.67-1.62-.45-.45-.99-.66-1.64-.66-1.54,0-2.32.76-2.32,2.29,0,.64.23,1.19.67,1.62.45.45.99.66,1.64.66s1.2-.22,1.64-.66c.44-.43.67-.98.67-1.62m4.16-.61c0,2.1-.68,3.89-2.04,5.39-1.36,1.5-3.07,2.26-5.13,2.26-1.63,0-2.94-.49-3.9-1.48-.97-.99-1.45-2.24-1.45-3.74,0-1.68.55-3.04,1.65-4.06,1.05-.94,2.36-1.41,3.95-1.41,2.06,0,3.72.61,4.99,1.83-.3-2.32-1.67-3.49-4.14-3.49h-29.95v-3.26h25.84c2.7,0,4.65.26,5.86.76,1.44.62,2.55,1.68,3.33,3.19.66,1.26,1,2.6,1,4.02m-14.04-.96c0,2.92-.75,5.61-2.25,8.07-1.76,2.81-4.01,4.21-6.73,4.21-1.79,0-3.15-.57-4.06-1.73-.77-.96-1.16-2.2-1.16-3.69,0-.69.22-1.48.64-2.37.43-.88.64-1.45.64-1.72,0-.46-.19-.99-.56-1.6-.48-.7-1.01-1.05-1.57-1.05-1.02,0-1.83.48-2.42,1.44-.5.86-.76,1.86-.76,3.02,0,1.9.38,3.5,1.13,4.82.3.47,1.1,1.44,2.38,2.89h-5.53c-1.9-1.66-2.85-3.67-2.85-6.02,0-5.36,2.24-8.04,6.7-8.04,2.27,0,4.27,1.41,6.01,4.22.5.8.87,1.31,1.09,1.52.45.4,1.04.6,1.76.6,1.44,0,2.59-.5,3.44-1.52.99-1.15,1.48-2.81,1.48-4.98,0-2.67-.69-4.73-2.09-6.17-1.62-1.68-3.49-2.52-5.6-2.52-1.52,0-2.75.46-3.69,1.36V.44c.88-.21,2.02-.32,3.41-.32,2.37,0,4.67,1.19,6.89,3.57,2.46,2.65,3.69,5.97,3.69,9.96m-39.02,2.93c0-.85-.25-1.56-.76-2.13-.5-.57-1.15-.86-1.93-.86s-1.44.27-2.09.8c-.64.52-.97,1.21-.97,2.03,0,1.83,1.02,2.75,3.06,2.75.64,0,1.26-.24,1.83-.72.57-.47.86-1.1.86-1.87m14.49-.58c0,2.67-.72,4.98-2.17,6.91-1.44,1.94-3.2,2.91-5.25,2.91-.97,0-1.92-.25-2.85-.73-1.07-.53-1.75-1.25-2.05-2.14-.61,1.91-2.53,2.87-5.74,2.87-1.87,0-3.38-.62-4.53-1.88-1.29-1.36-1.93-3.25-1.93-5.69,0-1.92.62-3.47,1.87-4.66,1.24-1.19,2.99-1.78,5.23-1.78,2,0,3.55.56,4.65,1.68.75,1.04,1.49,2.07,2.25,3.11.88,1.12,2.03,1.68,3.45,1.68.93,0,1.73-.5,2.4-1.52.61-.93.92-1.95.92-3.04,0-1.84-.75-3.26-2.25-4.24-1.21-.83-2.63-1.25-4.29-1.25-.88,0-1.6.14-2.17.41-1.65.43-3.23.64-4.73.64-4.25,0-6.55-1.62-6.9-4.86h5.33c-.06.75.15,1.38.62,1.88.47.51,1.09.76,1.86.76,1.02,0,1.98-.57,2.89-1.72.8-1.07,1.6-2.14,2.4-3.2,1.13-1.15,2.47-1.72,4.06-1.72,1.15,0,2.29.28,3.4.84-.05,1.64-.04,2.95.04,3.91-1.09-.66-1.69-1.02-1.8-1.07-.53-.24-1.33-.36-2.36-.36-1.16,0-2.68.95-4.57,2.85.8-.2,1.67-.3,2.6-.3,2.52,0,4.65.69,6.38,2.09,2.15,1.73,3.22,4.27,3.22,7.62m-46.85.58c0-.85-.25-1.56-.76-2.13-.5-.57-1.15-.86-1.93-.86s-1.44.27-2.09.8c-.64.52-.97,1.21-.97,2.03,0,1.83,1.02,2.75,3.06,2.75.64,0,1.26-.24,1.83-.72.57-.47.86-1.1.86-1.87m14.49-.58c0,2.67-.72,4.98-2.17,6.91-1.44,1.94-3.2,2.91-5.25,2.91-.97,0-1.92-.25-2.85-.73-1.07-.53-1.75-1.25-2.05-2.14-.61,1.91-2.53,2.87-5.74,2.87-1.87,0-3.38-.62-4.53-1.88-1.29-1.36-1.93-3.25-1.93-5.69,0-1.92.62-3.47,1.87-4.66,1.24-1.19,2.99-1.78,5.23-1.78,2,0,3.55.56,4.65,1.68.75,1.04,1.49,2.07,2.25,3.11.88,1.12,2.03,1.68,3.45,1.68.93,0,1.73-.5,2.4-1.52.61-.93.92-1.95.92-3.04,0-1.84-.75-3.26-2.25-4.24-1.21-.83-2.63-1.25-4.29-1.25-.88,0-1.6.14-2.17.41-1.65.43-3.24.64-4.73.64-4.25,0-6.55-1.62-6.9-4.86h5.33c-.06.75.15,1.38.62,1.88.47.51,1.09.76,1.86.76,1.02,0,1.98-.57,2.89-1.72.8-1.07,1.6-2.14,2.4-3.2,1.13-1.15,2.47-1.72,4.06-1.72,1.15,0,2.28.28,3.4.84-.05,1.64-.04,2.95.04,3.91-1.09-.66-1.69-1.02-1.8-1.07-.53-.24-1.33-.36-2.36-.36-1.16,0-2.68.95-4.57,2.85.8-.2,1.67-.3,2.6-.3,2.52,0,4.65.69,6.38,2.09,2.15,1.73,3.22,4.27,3.22,7.62" fill="#fff"/><path d="m579.4,28.47c.02-.43-.14-.79-.5-1.09-.35-.3-.75-.45-1.22-.45-1.1,0-1.66.45-1.66,1.35,0,.45.22.83.64,1.12.35.25.71.38,1.1.38,1.04,0,1.59-.44,1.63-1.33m2.29,1.11c0,.7-.45,1.38-1.34,2.02-.89.64-1.84.97-2.82.97s-1.84-.22-2.56-.64c-.87-.51-1.31-1.22-1.31-2.14s.16-1.6.47-2.1c.19-.3.48-.53.85-.7.23-.12.33-.22.29-.3-1.61,0-2.42.68-2.42,2.04,0,.14,0,.28.03.44l-2.54.14c.08-2.38,2.06-3.57,5.95-3.57.76,0,1.59.09,2.51.27.76.14,1.14-.24,1.14-1.11,0-.35-.17-.66-.5-.94-.32-.27-.68-.41-1.05-.41-.23,0-.48.1-.76.3-.15.12-.31.23-.46.35v-2.02c.13,0,.35-.01.66-.06.32-.04.55-.06.73-.06.81,0,1.53.23,2.14.7.61.47.91,1.07.91,1.79,0,.53-.09.93-.29,1.2-.02.01-.33.34-.94.97.88.78,1.32,1.74,1.32,2.87m24.19-13.92c0,2.72-.83,5.11-2.47,7.16-1.7,2.16-3.77,3.23-6.23,3.23-1.65,0-3.12-.52-4.42-1.57-1.39-1.09-2.08-2.38-2.08-3.84,0-.69.23-1.5.68-2.42.45-.92.68-1.64.68-2.15,0-.58-.18-1.07-.54-1.48-.36-.4-.78-.6-1.25-.6-1.75,0-2.63,1.71-2.63,5.15,0,3.12.96,5.37,2.87,6.74h-6.16c-1.19-1.17-1.79-3.29-1.79-6.36,0-2.29.62-4.06,1.87-5.31,1.12-1.17,2.61-1.75,4.47-1.75,1.99,0,3.46.54,4.39,1.63.56,1.01,1.13,2.01,1.72,3.02.61,1.08,1.52,1.63,2.71,1.63,1.04,0,1.96-.43,2.77-1.29.82-.87,1.22-1.88,1.22-3.04,0-1.83-.69-3.29-2.08-4.38-1.22-1.02-2.72-1.52-4.5-1.52-.86,0-1.67.14-2.43.4-1.06.37-2.23.56-3.48.56-3.7,0-5.54-1.4-5.54-4.2,0-.24,0-.49.04-.76h6.03c-.48.42-.72.83-.72,1.2,0,.4.29.75.88,1.04.45.22.85.33,1.2.33,1.3,0,2.67-1.07,4.11-3.19,1.44-2.13,2.91-3.19,4.4-3.19,1.31,0,2.39.26,3.24.76v4.13c-.37-.34-.75-.71-1.12-1.08-.53-.4-1.26-.61-2.2-.61-1.97,0-3.44.95-4.4,2.84.58-.16,1.2-.24,1.83-.24,2.4,0,4.45.84,6.19,2.51,1.83,1.76,2.75,3.98,2.75,6.67m-29.89-9.41c-1.25-.96-2.36-1.43-3.31-1.43-1.17,0-2.54.63-4.12,1.89-1.83.87-3.33,1.3-4.47,1.3-1.89,0-3.38-.49-4.47-1.49-1.02-.91-1.52-2.03-1.52-3.36,0-.3.03-.59.08-.89h5c-.08.13-.12.64-.12,1.52,0,1.11.8,1.68,2.4,1.68,1.25,0,2.58-.78,3.99-2.34,1.42-1.56,2.82-2.34,4.2-2.34.72,0,1.51.23,2.36.68v4.77Zm-2.52,7.5c0-1.62-.63-3-1.9-4.14-1.26-1.14-2.79-1.71-4.57-1.71s-3.31.57-4.57,1.71c-1.27,1.14-1.9,2.52-1.9,4.14s.63,3,1.9,4.14c1.26,1.14,2.79,1.71,4.57,1.71s3.31-.57,4.57-1.71c1.27-1.14,1.9-2.52,1.9-4.14m4.49,2.51c0,2.74-1.07,5.08-3.21,7.01-2.15,1.93-4.73,2.9-7.74,2.9s-5.61-.97-7.72-2.9c-2.1-1.93-3.15-4.27-3.15-7.01s1.06-5.08,3.15-7.01c2.11-1.93,4.68-2.9,7.72-2.9s5.59.97,7.74,2.9c2.14,1.93,3.21,4.27,3.21,7.01m-25.38-10.05c-.71-.8-1.91-1.19-3.59-1.19-.99,0-2.08.32-3.28.95-.66.4-1.32.8-1.95,1.19-1.55.77-3.35,1.15-5.4,1.15-1.6,0-2.94-.37-4.03-1.11-1.23-.82-1.9-2-2.04-3.54l4.83-.04c-.02.16-.04.32-.04.47,0,1.59,1.11,2.38,3.32,2.38,1.57,0,2.99-.72,4.24-2.16,1.46-1.66,2.96-2.67,4.47-3.05,1.33-.32,2.49-.05,3.47.8v4.14Zm-1.93,8.57c0-1.43-.51-2.73-1.53-3.91-1.53-1.74-3.91-2.62-7.16-2.62-2.28,0-4.17.54-5.67,1.62-1.59,1.15-2.38,2.66-2.38,4.51,0,1.23.33,2.27,1.01,3.1.72.94,1.7,1.41,2.94,1.41,1.33,0,2.37-.39,3.08-1.17.57-.6.85-1.23.85-1.91,0-.37.23-.57.68-.57.65,0,.97.2.97.57-.05.19-.08.38-.08.57,0,.67.31,1.26.91,1.76.6.5,1.4.75,2.4.75.81,0,1.6-.3,2.39-.89,1.07-.78,1.61-1.85,1.61-3.22m3.9,2.24c0,2.54-.91,4.73-2.72,6.58-1.71,1.71-3.57,2.56-5.6,2.56-.85,0-1.73-.22-2.65-.64-.93-.42-1.48-.91-1.66-1.46-.14.59-.83,1.09-2.08,1.51-1.09.39-2.19.59-3.28.59-1.55,0-2.99-.74-4.32-2.21-1.49-1.64-2.24-3.65-2.24-6.03,0-2.98.8-5.44,2.39-7.39,2.14-2.63,5.48-3.94,10.03-3.94,3.04,0,5.63.65,7.76,1.96,2.91,1.82,4.36,4.64,4.36,8.47m-31.03-12.25c-.48-.72-1.45-1.07-2.92-1.07-1.22,0-2.17.25-2.84.73-.8.75-1.6,1.5-2.39,2.26-1.73,1.56-3.41,2.34-5.04,2.34-1.14,0-2.31-.33-3.47-.97-1.73-.95-2.6-2.4-2.6-4.36h5.72c-.19.46-.28.77-.28.94,0,1.27.81,1.9,2.43,1.9,1.12,0,2.12-.55,3-1.65.69-.93,1.4-1.88,2.12-2.84,1.28-1.23,2.77-1.84,4.47-1.84.29,0,.62.06,1,.18s.64.2.8.23v4.16Zm-8.75,11.36c0-.82-.33-1.52-.98-2.1-.65-.58-1.36-.88-2.13-.88s-1.44.3-2.01.88c-.57.58-.86,1.28-.86,2.1,0,.88.28,1.6.82,2.18.54.58,1.23.88,2.05.88,2.07,0,3.1-1.02,3.1-3.06m13.66-.3c0,2.41-.68,4.64-2.04,6.73-1.54,2.29-3.42,3.45-5.63,3.48-1.17,0-2.12-.32-2.84-.97,0,0-.49-.64-1.48-1.93-.27.81-.94,1.5-2.01,2.06-1.08.56-2.1.84-3.06.84-2.07,0-3.79-.7-5.15-2.11-1.36-1.41-2.04-3.23-2.04-5.49s.77-3.91,2.32-5.21c1.36-1.19,3.01-1.79,4.95-1.79,1.68,0,3.06.42,4.16,1.26.77.58,1.41,1.41,1.91,2.49.25.61.48,1.22.72,1.86.56,1.02,1.75,1.54,3.6,1.54,1.14,0,2.1-.46,2.86-1.39s1.13-2.11,1.13-3.57c0-1.59-.5-2.83-1.52-3.73-.88-.82-1.94-1.22-3.19-1.22s-2.21.38-2.95,1.15v-4.14h3.31c2.08.32,3.76,1.46,5.04,3.4,1.27,1.95,1.91,4.2,1.91,6.73m.05,10.24c0,2.87-1.37,5.23-4.12,7.1-2.5,1.67-5.39,2.51-8.66,2.51s-6.24-.75-8.55-2.24c-2.55-1.65-3.83-3.92-3.83-6.82,0-1.7.35-2.8,1.07-3.28-.05.4-.08.78-.08,1.12,0,2.58,1.25,4.47,3.76,5.68,1.95.94,4.46,1.4,7.56,1.4,2.69,0,5.05-.38,7.07-1.15,3.28-1.25,4.92-3.12,4.92-5.63,0-.53-.1-1.09-.29-1.68.78-.11,1.16.89,1.16,2.99" fill="#fff"/></g></svg>